<?xml version="1.0" encoding="UTF-8"?>
<svg width="1200pt" height="1200pt" version="1.1" viewBox="0 0 1200 1200" xmlns="http://www.w3.org/2000/svg">
 <path fill="currentColor" d="m190.29 786.41-76.164 45.602c-4.6523 3.0078-7.7656 7.8906-8.5195 13.379-1.125 7.2227 0.34375 14.605 4.1523 20.844l152.8 258.79c1.8867 3.2969 4.3203 6.25 7.2031 8.7227 2.6484 2.207 5.6875 3.8984 8.9609 4.9805 2.7891 1.0039 5.7578 1.4102 8.7148 1.2031 2.5039-0.22656 4.9219-1.0273 7.0664-2.3398l76.164-45.59c4.6484-3.0234 7.7461-7.9219 8.4844-13.414 1.1211-7.2227-0.34766-14.605-4.1523-20.848l-152.77-258.77c-1.8828-3.2969-4.3164-6.25-7.1992-8.7266-2.6484-2.2031-5.6914-3.8945-8.9648-4.9766-2.7891-1.0039-5.7539-1.4102-8.7109-1.2031-2.5117 0.24609-4.9336 1.0664-7.0781 2.4023zm396.08-607.75c3.0273 2.8633 4.7656 6.8281 4.8203 10.996 0.058594 4.1641-1.5703 8.1758-4.5156 11.121-2.9492 2.9453-6.9609 4.5742-11.125 4.5195-4.1641-0.058594-8.1289-1.7969-10.996-4.8203l-34.801-34.801h0.003906c-3.0273-2.8633-4.7656-6.8281-4.8242-10.996-0.054688-4.1641 1.5742-8.1758 4.5195-11.121 2.9453-2.9453 6.957-4.5781 11.125-4.5195 4.1641 0.058594 8.1289 1.7969 10.992 4.8203zm-115.03 185.18c-5.4102-0.15234-10.344-3.125-13.004-7.8359-2.6641-4.7109-2.6641-10.469 0-15.18 2.6602-4.7109 7.5938-7.6836 13.004-7.8359h49.262c5.4062 0.15234 10.344 3.125 13.004 7.8359 2.6602 4.7109 2.6602 10.469 0 15.18-2.6602 4.7109-7.5977 7.6836-13.004 7.8359zm471.45 0c-5.4102-0.15234-10.344-3.125-13.008-7.8359-2.6602-4.7109-2.6602-10.469 0-15.18 2.6641-4.7109 7.5977-7.6836 13.008-7.8359h49.258c4.168-0.11719 8.2031 1.457 11.191 4.3633 2.9844 2.9062 4.6719 6.8945 4.6719 11.062 0 4.168-1.6875 8.1562-4.6719 11.062-2.9883 2.9062-7.0234 4.4805-11.191 4.3633zm-43.98-163.37c-2.8633 3.0234-6.832 4.7617-10.996 4.8203-4.1641 0.054687-8.1758-1.5742-11.121-4.5195-2.9492-2.9453-4.5781-6.957-4.5195-11.121 0.054688-4.168 1.793-8.1328 4.8203-10.996l34.801-34.801c2.8438-3.0742 6.8164-4.8594 11.004-4.9492 4.1875-0.085938 8.2305 1.5312 11.203 4.4844 2.9688 2.9531 4.6133 6.9883 4.5508 11.176s-1.8242 8.1719-4.8828 11.035l-34.801 34.801zm-145.2-75.793c0 5.5117-2.9414 10.609-7.7188 13.363-4.7734 2.7578-10.656 2.7578-15.43 0-4.7773-2.7539-7.7188-7.8516-7.7188-13.363v-49.199c0-5.5156 2.9414-10.609 7.7188-13.363 4.7734-2.7578 10.656-2.7578 15.43 0 4.7773 2.7539 7.7188 7.8477 7.7188 13.363zm-89.449 481.2c1.8477 2.9414 3.707 4.8008 5.1367 4.8008h121.08c1.4141 0 3.2773-1.8359 5.1367-4.8008 6.8477-12.91 6.8477-28.379 0-41.289-1.8594-2.9531-3.7188-4.8008-5.1367-4.8008h-121c-1.4297 0-3.2891 1.8359-5.1367 4.8008-6.8477 12.91-6.8477 28.379 0 41.289zm106.49 35.629h-81.625l5.3516 18.324c2.3281 9.0234 7.2578 17.164 14.172 23.41 6.1211 4.6875 13.617 7.2266 21.324 7.2266 7.7109 0 15.203-2.5391 21.324-7.2266 6.9258-6.2383 11.859-14.383 14.184-23.41l5.3516-18.324zm11.449-112.55c5.6172-63.602 27.949-84.562 49.199-104.59 17.508-16.465 34.152-32.113 34.152-85.535 0-48.465-25.859-93.25-67.832-117.48s-93.688-24.234-135.66 0c-41.973 24.234-67.828 69.02-67.828 117.48 0 53.426 16.633 69.07 34.152 85.535 21.312 20.027 43.645 41.039 49.199 104.59h37.008v-94.441c-12.512-3.3945-23.555-10.812-31.43-21.105-7.8789-10.297-12.148-22.895-12.156-35.859 0-5.5117 2.9414-10.605 7.7188-13.363 4.7734-2.7578 10.656-2.7578 15.43 0 4.7773 2.7578 7.7188 7.8516 7.7188 13.363 0 10.059 5.3633 19.352 14.074 24.383 8.7109 5.0273 19.441 5.0273 28.152 0 8.7109-5.0312 14.074-14.324 14.074-24.383-0.11328-4.1641 1.457-8.1992 4.3633-11.188 2.9062-2.9883 6.8984-4.6719 11.062-4.6719 4.168 0 8.1602 1.6836 11.066 4.6719 2.9023 2.9883 4.4766 7.0234 4.3594 11.188 0 12.965-4.2656 25.562-12.141 35.859-7.875 10.297-18.922 17.711-31.43 21.105v94.414zm-142.37 395.8 90.289 23.016c19.863 4.9922 40.895 1.9258 58.504-8.5391 17.605-10.461 30.359-27.465 35.469-47.297 0.058593-0.25391 0.12109-0.51562 0.16797-0.78125 3.418-14.188 2.7695-29.051-1.8711-42.887l192.92-140.89c0.12109-0.097656 0.81641-0.55078 2.125-1.4141 10.77-7.0078 23.75-9.7812 36.445-7.7891 12.293 1.7812 23.375 8.3789 30.801 18.336 0 0 0.45703 0.67188 1.2617 1.9219 7.4102 11.086 10.363 24.559 8.2695 37.727-2.3281 13.613-9.5117 25.922-20.223 34.645l-254.47 211.73c-27.238 23.41-63.402 33.637-98.867 27.961l-258.21-36.996c-13.086-2.043-26.473 0.62109-37.777 7.5234l-35.004 20.797-126.12-213.6c49.184-45.047 96.383-71.746 141.6-80.102v0.003906c23.594-4.1289 47.781-3.332 71.051 2.3359s45.117 16.086 64.164 30.602c34.633 24.277 118.15 42.887 178.62 56.398 15.215 3.3828 28.859 6.4336 41.293 9.6016l0.58984 0.15625h-0.003907c11.922 3.1289 22.09 10.91 28.227 21.602 6.2344 10.582 8.1445 23.168 5.3281 35.125-0.085938 0.26562-0.15625 0.53906-0.22656 0.81641l-0.003906-0.003906c-3.1055 11.836-10.746 21.973-21.266 28.219s-23.074 8.1016-34.953 5.168l-0.50391-0.12109-90-22.945c-5.3398-1.3555-10.996 0.23828-14.844 4.1836-3.8438 3.9492-5.293 9.6445-3.7969 14.949 1.4961 5.3008 5.707 9.4023 11.043 10.762z" fill-rule="evenodd"/>
</svg>
