<?xml version="1.0" encoding="UTF-8"?>
<svg width="1200pt" height="1200pt" version="1.1" viewBox="0 0 1200 1200" xmlns="http://www.w3.org/2000/svg">
 <path d="m510.19 63.938h171.84c13.266 0 24 10.734 24 24v276.47c0 13.266-10.734 24-24 24-3.5156 0-6.8438-0.75-9.8438-2.1094-11.625-4.125-23.859-7.4062-36.516-9.6094-12.75-2.25-25.969-3.4219-39.562-3.4219-62.625 0-119.3 25.406-160.31 66.375-41.016 41.016-66.375 97.688-66.375 160.31 0 62.621 25.406 119.3 66.375 160.31 41.016 41.016 97.688 66.375 160.31 66.375 13.594 0 26.812-1.1719 39.562-3.4219 13.266-2.3438 26.062-5.7656 38.203-10.172 12.422-4.5 26.156 1.9219 30.656 14.344 0.98438 2.6719 1.4531 5.4375 1.4531 8.1562l0.046875 276.47c0 13.266-10.734 24-24 24h-171.84c-13.219 0-23.953-10.688-24-23.859l-6.9844-103.64c-15.75-4.5-31.031-9.8438-46.312-16.172-15.234-6.375-29.391-13.266-43.031-20.812l-79.312 69.328c-9.5156 8.3438-23.859 7.7344-32.672-1.0781l-121.6-121.45c-9.375-9.375-9.375-24.562 0-33.938l68.25-78.141c-7.7812-14.016-14.859-28.594-21.094-43.688-6.1406-14.672-11.438-29.953-15.938-45.656l-105.14-7.0781c-12.656-0.84375-22.359-11.391-22.359-23.906l-0.046875-171.84c0-13.219 10.688-23.953 23.859-24l103.69-6.9844c4.5-15.703 9.7969-30.984 16.172-46.266 6.375-15.234 13.266-29.391 20.859-43.078l-69.328-79.359c-8.3438-9.5156-7.7344-23.859 1.0781-32.672l121.5-121.6c9.375-9.375 24.562-9.375 33.938 0l78.094 68.297c14.062-7.8281 28.641-14.906 43.594-21.094 14.766-6.1406 30.094-11.484 45.797-15.938l7.0781-105.09c0.84375-12.656 11.391-22.359 23.906-22.406zm353.26 106.12c20.531 0 39.188 8.3438 52.688 21.844 13.453 13.453 21.844 32.109 21.844 52.688 0 20.484-8.3438 39.094-21.844 52.594-8.0156 8.0156-17.766 14.203-28.641 17.906v203.39c0 13.266-10.734 24-24 24h-84.469c3.375 10.781 5.8594 21.984 7.3125 33.516h208.78c3.7031-10.922 9.8906-20.672 17.859-28.641l1.5-1.4062c13.359-12.656 31.406-20.438 51.141-20.438 20.484 0 39.141 8.3906 52.641 21.891 13.5 13.453 21.891 32.062 21.891 52.641 0 20.531-8.3438 39.188-21.844 52.688l-1.5 1.4062c-13.359 12.656-31.406 20.438-51.141 20.438-20.438 0-39.094-8.3906-52.594-21.891-8.0156-7.9688-14.203-17.719-17.906-28.594h-208.78c-1.4531 11.531-3.8906 22.688-7.3125 33.469h84.469c13.266 0 24 10.734 24 24v203.39c10.875 3.75 20.625 9.8906 28.594 17.859 13.547 13.594 21.891 32.203 21.891 52.688 0 20.531-8.3438 39.188-21.844 52.688s-32.109 21.844-52.688 21.844c-20.531 0-39.188-8.3438-52.688-21.844s-21.844-32.109-21.844-52.688c0-20.531 8.3438-39.188 21.844-52.688 7.9688-7.9688 17.766-14.156 28.641-17.859v-179.39h-83.344c-7.125 10.781-15.328 20.859-24.469 30-34.688 34.688-82.594 56.156-135.52 56.156-52.875 0-100.83-21.469-135.47-56.156-34.688-34.688-56.156-82.594-56.156-135.52 0-52.875 21.469-100.83 56.156-135.52s82.594-56.156 135.47-56.156 100.83 21.469 135.52 56.156c9.0938 9.0938 17.297 19.172 24.469 29.953h83.344v-179.34c-10.922-3.7031-20.672-9.8906-28.641-17.859-13.5-13.5-21.844-32.109-21.844-52.688 0-20.531 8.3438-39.188 21.844-52.688 13.453-13.453 32.109-21.844 52.688-21.844zm-267.32 535.45c-13.266 0-24-10.734-24-24s10.734-24 24-24h131.63c4.5938-10.547 8.0156-21.797 9.9844-33.469h-141.61c-13.266 0-24-10.734-24-24s10.734-24 24-24h141.61c-1.9688-11.719-5.3438-22.969-9.9844-33.516h-131.63c-13.266 0-24-10.734-24-24s10.734-24 24-24h97.406c-25.547-23.625-59.812-38.062-97.406-38.062-39.656 0-75.609 16.078-101.53 42.047-25.969 25.969-42.047 61.875-42.047 101.58 0 39.656 16.078 75.609 42.047 101.58s61.875 42.047 101.53 42.047c37.594 0 71.859-14.438 97.453-38.109h-97.453z"/>
</svg>
