<?xml version="1.0" encoding="UTF-8"?>
<svg width="1200pt" height="1200pt" version="1.1" viewBox="0 0 1200 1200" xmlns="http://www.w3.org/2000/svg">
 <path d="m604.13 900.74-116.62 116.77c-1.5 1.6406-3.1406 3-4.7344 4.5l-114.52-114.38 4.5-4.875 116.86-116.77zm166.26-69.375c-25.078-4.1719-50.672 2.625-70.406 18.609-5.2969 4.3594-10.172 9.1875-14.484 14.531-16.875 21.094-22.219 49.172-14.25 75 8.5781 28.641 30.656 51.281 59.109 60.469 37.5 12.516 85.5 37.5 106.64 91.359v0.046874c1.8281 4.5938 6.1875 7.6875 11.109 7.875 4.7344-0.046874 9-2.6719 11.156-6.8906 30.422-71.391 22.219-153.42-21.75-217.36-15.281-23.344-39.609-39.188-67.125-43.641zm-143.16-183.37 114.75 114.52 118.27-118.27-114.75-114.75zm57.141 182.26c18.469-15 41.25-23.766 65.016-24.984l-303.14-302.9c-28.312-28.312-74.203-28.359-102.56-0.046876-28.359 28.312-28.359 74.203-0.046876 102.56l300 300c1.9219-20.438 9.7969-39.844 22.594-55.875 5.3906-6.8438 11.484-13.125 18.141-18.75zm184.74-309.24c-28.078-28.547-72.797-32.156-105.09-8.5312l113.25 113.25c23.25-32.203 19.828-76.5-8.1562-104.72zm-547.22 470.86-13.875 54.75c-2.7656 10.125 0.14062 20.953 7.5938 28.359 5.4844 5.4844 12.891 8.5781 20.625 8.5312 2.4375 0 4.875-0.28125 7.2656-0.89062l54.609-13.875c23.25-6.3281 45.047-16.922 64.406-31.266l-110.86-111h-0.046875c-13.922 19.734-24.047 41.906-29.719 65.391zm-48-819.98h-42.75c-0.60938-0.09375-1.125 0.375-1.0312 0.98438v42.75c0 0.5625 0.46875 0.98438 1.0312 0.98438h42.75c0.51562-0.046875 0.9375-0.46875 0.98438-0.98438v-42.75c0-0.5625-0.46875-0.98438-0.98438-0.98438zm369.47 757.74c-6.6094 0-12.938-2.5781-17.625-7.2656l-3.9844-3.9844-25.875 25.875h51.141c-1.4062-4.7812-2.4375-9.7031-3.1406-14.625zm-16.5-357.37c3.3281 0 6.5156-1.3125 8.8594-3.6562s3.6562-5.5312 3.6562-8.8594v-53.766 0.046875c0-3.3281-1.3125-6.5156-3.6562-8.8594s-5.5312-3.6562-8.8594-3.6562h-53.766 0.046875c-6.9375 0-12.516 5.5781-12.516 12.516v53.766-0.046875c0 3.3281 1.3125 6.5156 3.6562 8.8594s5.5312 3.6562 8.8594 3.6562zm-231.37-399.98h-42.75c-0.51562 0-0.98438 0.42188-0.98438 0.98438v42.75c0.046875 0.51562 0.46875 0.9375 0.98438 0.98438h42.75c0.5625 0 1.0312-0.42188 1.0312-0.98438v-43.125c0.09375-0.60938-0.42188-1.0781-1.0312-0.98438zm697.13 24.984v77.766h-985.22v-78.656c0.046875-52.688 42.797-95.344 95.484-95.344h794.26c52.688 0 95.438 42.656 95.484 95.344zm-792.61-24.375c0-14.344-11.625-26.016-26.016-26.016h-42.844c-14.391 0-26.016 11.672-26.016 26.016v42.75c0 6.8906 2.7188 13.5 7.5938 18.375s11.531 7.6406 18.422 7.6406h42.75c6.8906 0 13.547-2.7188 18.469-7.5938 4.875-4.875 7.6406-11.484 7.6406-18.422zm121.64 0c0-14.344-11.672-26.016-26.016-26.016h-42.891c-14.344 0-25.969 11.672-25.969 26.016v42.75c0 6.8906 2.7188 13.5 7.5938 18.375s11.484 7.6406 18.375 7.6406h42.75c6.8906 0 13.547-2.7656 18.422-7.6406s7.5938-11.484 7.5938-18.375zm121.74 0c-0.046874-14.391-11.766-26.016-26.109-26.016h-42.281c-14.344 0-26.062 11.625-26.109 26.016v42.75c0.046876 14.391 11.766 26.016 26.109 26.016h42.656c14.344 0 26.062-11.625 26.109-26.016zm-26.109-0.98438h-42.281c-0.5625-0.09375-1.125 0.375-1.125 0.98438v42.75c0.09375 0.5625 0.5625 0.98438 1.125 0.98438h42.656c0.5625 0 1.0312-0.42188 1.125-0.98438v-42.75c0.23437-0.9375-0.89063-1.6406-1.6406-0.98438zm-409.87 128.11h985.22v548.86c-0.046875 52.688-42.797 95.391-95.484 95.391h-101.62c-7.3594-29.578-19.734-57.656-36.609-83.016-19.078-29.156-49.5-48.984-83.906-54.609 0.23438-7.2188-2.6719-14.203-7.9688-19.125l-7.2656-7.2656 40.266-40.359c2.2969 2.8594 5.8125 4.5469 9.4688 4.6406h209.53c6.8906 0 12.469-5.625 12.469-12.516s-5.5781-12.516-12.469-12.516h-198.28l57.281-57c3.3281-3.4219 5.6719-7.7812 6.6094-12.469 5.0156-1.6406 9.4219-4.875 12.516-9.1406 30.656-42.188 26.109-100.36-10.734-137.26-36.891-36.891-95.062-41.531-137.29-10.875-4.2188 3.0938-7.3594 7.5-9 12.516-4.7344 0.98438-9.0469 3.3281-12.469 6.75l-118.27 118.27-33-33.141h50.016c20.672 0 37.5-16.828 37.5-37.5v-53.766c0-20.719-16.828-37.5-37.5-37.5h-53.766c-20.719 0-37.5 16.781-37.5 37.5v50.016l-71.484-71.484v-0.046875c-17.719-20.531-43.172-32.812-70.266-33.797-27.094-1.0312-53.438 9.2812-72.609 28.453-19.172 19.172-29.484 45.516-28.453 72.609 0.98437 27.094 13.266 52.547 33.797 70.266l145.5 146.34-116.77 116.86-3.8906 3.9844-1.2656 1.3594 0.046874 0.046874c-3.375 3.6562-5.5781 8.25-6.375 13.125-4.6406 1.7344-8.7188 4.8281-11.625 8.9062-7.2656 9.9844-13.734 20.625-19.219 31.734h-109.64c-52.688 0-95.438-42.703-95.484-95.391zm924.1 530.11c0-3.2812-1.3125-6.4688-3.6562-8.8125s-5.5312-3.6562-8.8125-3.6562h-153.28c-6.8906 0-12.469 5.5781-12.469 12.469 0 6.9375 5.5781 12.516 12.469 12.516h153.28c3.2812 0 6.4688-1.3125 8.8125-3.6562s3.6562-5.5312 3.6562-8.8594zm0-196.36c0-3.3281-1.3125-6.5156-3.6562-8.8594s-5.5312-3.6562-8.8125-3.6562h-94.781c-6.8906 0-12.469 5.625-12.469 12.516s5.5781 12.516 12.469 12.516h94.781c6.8906 0 12.469-5.625 12.469-12.516zm-12.516-123.61h-66.469c-6.8906 0-12.516 5.5781-12.516 12.469 0 6.9375 5.625 12.516 12.516 12.516h66.516c6.8906 0 12.469-5.5781 12.469-12.516 0-6.8906-5.5781-12.469-12.469-12.469zm-845.58-124.03c0 30.797 24.938 55.781 55.734 55.781h738.52c30.703-0.09375 55.594-25.031 55.594-55.781v-2.25c0-30.703-24.891-55.688-55.594-55.734h-738.52c-30.797 0-55.734 24.938-55.734 55.734zm-4.875 136.5c0 3.3281 1.3125 6.5156 3.6562 8.8594s5.5312 3.6562 8.8125 3.6562h66.516c6.8906 0 12.516-5.5781 12.516-12.516 0-6.8906-5.625-12.469-12.516-12.469h-66.516c-6.8906 0-12.469 5.5781-12.469 12.469zm0 111.14c0 3.3281 1.3125 6.5156 3.6562 8.8594s5.5312 3.6562 8.8125 3.6562h94.781c6.8906 0 12.469-5.625 12.469-12.516s-5.5781-12.516-12.469-12.516h-94.781c-6.8906 0-12.469 5.625-12.469 12.516zm0 98.25c0 3.3281 1.3125 6.5156 3.6562 8.8594s5.5312 3.6562 8.8125 3.6562h209.26c6.9375 0 12.516-5.625 12.516-12.516s-5.5781-12.516-12.516-12.516h-209.26c-6.8906 0-12.469 5.625-12.469 12.516zm0 98.109c0 3.3281 1.3125 6.5156 3.6562 8.8594s5.5312 3.6562 8.8125 3.6562h153.28c6.8906 0 12.469-5.5781 12.469-12.516 0-6.8906-5.5781-12.469-12.469-12.469h-153.28c-6.8906 0-12.469 5.5781-12.469 12.469zm60.609-413.26h738.52c16.922-0.046875 30.609-13.781 30.609-30.75v-2.25c0-16.922-13.688-30.656-30.609-30.75h-738.52c-16.969 0.09375-30.703 13.828-30.75 30.75v2.25c0.046875 16.969 13.781 30.703 30.75 30.75z"/>
</svg>
